<svg width="283" height="64" viewBox="0 0 283 64" fill="none" xmlns="http://www.w3.org/2000/svg">
<path d="M13.0778 11H22.4191H23.3533V11.9058L22.9796 16.9784H59.037H60.3448L59.7843 18.2466L52.1245 37.8124L51.9376 38.3559H51.1903H20.364H19.4299V37.45L21.485 12.8116H13.0778V11ZM22.7928 18.7901L21.2982 36.5442H50.6299L57.5424 18.7901H22.7928Z" fill="#048BA8"/>
<path d="M5.04431 20.0582H16.6275V21.8699H5.04431V20.0582Z" fill="#048BA8"/>
<path d="M0 26.9425H25.5952V28.7541H0V26.9425Z" fill="#048BA8"/>
<path d="M9.34131 34.3702H20.5509V36.1819H9.34131V34.3702Z" fill="#048BA8"/>
<path d="M46.7065 41.798C48.7616 41.798 50.2562 43.2473 50.6299 45.4213C50.8167 48.1388 49.1353 51.2186 46.5197 52.3056C43.9041 53.3925 40.7281 51.9432 40.5413 49.0446C40.5413 47.0518 41.2886 44.8778 42.5964 43.6096H26.3425C26.7161 44.1531 26.903 44.6966 27.0898 45.4213C27.2766 48.1388 25.5952 51.2186 22.9796 52.3056C20.1772 53.3925 17.3748 51.9432 17.0012 49.0446C16.8144 46.3271 18.4958 43.2473 21.1114 42.1603C21.6718 41.9792 22.2323 41.798 22.7928 41.798H46.7065ZM21.8587 43.7908C19.9904 44.5155 18.6826 46.8706 18.8695 48.8634C19.0563 50.4939 20.5509 51.3997 22.2323 50.6751C24.1006 49.7692 25.4084 47.5953 25.2215 45.6025C25.0347 43.7908 23.5401 43.0662 21.8587 43.7908ZM45.3988 43.7908C43.5305 44.5155 42.2227 46.8706 42.4095 48.8634C42.5964 50.4939 44.091 51.3997 45.7724 50.6751C47.6407 49.7692 48.9485 47.5953 48.7616 45.6025C48.388 43.7908 46.8934 43.0662 45.3988 43.7908Z" fill="#048BA8"/>
<path d="M78.29 49V16.495H79.61V47.955H89.95V49H78.29ZM99.6257 49.385C98.0124 49.385 96.7107 49.1467 95.7207 48.67C94.7307 48.1933 94.0157 47.4233 93.5757 46.36C93.1357 45.26 92.9157 43.8483 92.9157 42.125V28.54C92.9157 26.0467 93.3924 24.2317 94.3457 23.095C95.3357 21.9217 97.0957 21.335 99.6257 21.335C102.156 21.335 103.879 21.9033 104.796 23.04C105.749 24.14 106.226 25.9733 106.226 28.54V42.125C106.226 43.8117 106.024 45.205 105.621 46.305C105.217 47.3683 104.539 48.1567 103.586 48.67C102.632 49.1467 101.312 49.385 99.6257 49.385ZM99.6257 48.34C101.569 48.34 102.926 47.8817 103.696 46.965C104.502 46.0117 104.906 44.3067 104.906 41.85V28.815C104.906 26.5417 104.521 24.91 103.751 23.92C103.017 22.8933 101.642 22.38 99.6257 22.38C97.6824 22.38 96.289 22.8567 95.4457 23.81C94.639 24.7633 94.2357 26.4317 94.2357 28.815V41.85C94.2357 44.27 94.639 45.9567 95.4457 46.91C96.289 47.8633 97.6824 48.34 99.6257 48.34ZM118.537 49.495C116.777 49.495 115.384 49.2933 114.357 48.89C113.367 48.45 112.652 47.7167 112.212 46.69C111.809 45.6633 111.607 44.215 111.607 42.345V27.88C111.607 25.3133 112.084 23.5717 113.037 22.655C114.027 21.7017 115.769 21.225 118.262 21.225C120.719 21.225 122.424 21.7017 123.377 22.655C124.33 23.5717 124.807 25.295 124.807 27.825V31.015H123.487V27.88C123.487 25.9 123.157 24.47 122.497 23.59C121.837 22.6733 120.425 22.215 118.262 22.215C116.135 22.215 114.705 22.6733 113.972 23.59C113.275 24.47 112.927 25.9 112.927 27.88V42.4C112.927 44.6 113.275 46.1583 113.972 47.075C114.705 47.955 116.209 48.395 118.482 48.395C120.499 48.395 121.837 47.9733 122.497 47.13C123.157 46.25 123.487 44.6733 123.487 42.4V39.485H124.807V42.345C124.807 44.1417 124.605 45.5717 124.202 46.635C123.799 47.6617 123.139 48.395 122.222 48.835C121.305 49.275 120.077 49.495 118.537 49.495ZM135.753 49.385C134.983 49.385 134.158 49.275 133.278 49.055C132.398 48.835 131.628 48.285 130.968 47.405C130.344 46.4883 130.033 45.04 130.033 43.06V41.135C130.033 39.1917 130.619 37.6517 131.793 36.515C132.966 35.3417 134.451 34.2783 136.248 33.325C137.568 32.6283 138.668 32.005 139.548 31.455C140.464 30.905 141.161 30.3 141.638 29.64C142.114 28.98 142.353 28.155 142.353 27.165V26.23C142.353 25.0933 142.096 24.25 141.583 23.7C141.106 23.1133 140.464 22.7283 139.658 22.545C138.888 22.325 138.081 22.215 137.238 22.215C135.074 22.215 133.644 22.7467 132.948 23.81C132.288 24.8733 131.958 26.3767 131.958 28.32V30.63H130.748V28.21C130.748 26.8533 130.913 25.6617 131.243 24.635C131.609 23.5717 132.251 22.7467 133.168 22.16C134.121 21.5367 135.478 21.225 137.238 21.225C139.181 21.225 140.593 21.4817 141.473 21.995C142.389 22.5083 142.976 23.205 143.233 24.085C143.489 24.9283 143.618 25.845 143.618 26.835V49H142.353L142.298 45.315C141.748 46.7083 140.868 47.735 139.658 48.395C138.448 49.055 137.146 49.385 135.753 49.385ZM135.973 48.34C138.136 48.34 139.731 47.6067 140.758 46.14C141.784 44.6733 142.298 42.7483 142.298 40.365V30.41C141.784 31.18 140.978 31.8767 139.878 32.5C138.814 33.1233 137.714 33.7283 136.578 34.315C134.928 35.2317 133.644 36.185 132.728 37.175C131.811 38.165 131.353 39.54 131.353 41.3V42.95C131.353 44.71 131.591 45.975 132.068 46.745C132.581 47.4783 133.204 47.9367 133.938 48.12C134.671 48.2667 135.349 48.34 135.973 48.34ZM150.083 49V14.02H151.348V49H150.083ZM158.354 49V16.495H172.379V18.97H161.929V30.63H170.289V33.38H161.929V46.525H172.379V49H158.354ZM174.128 49L180.288 34.645L175.008 21.775H178.308L182.433 31.895L186.833 21.775H190.078L184.578 34.645L190.518 49H187.218L182.433 37.67L177.483 49H174.128ZM194.005 55.38V21.775H197.195L197.305 24.195C197.635 23.425 198.167 22.765 198.9 22.215C199.633 21.665 200.843 21.39 202.53 21.39C204.253 21.39 205.573 21.6833 206.49 22.27C207.407 22.8567 208.048 23.6633 208.415 24.69C208.782 25.7167 208.965 26.9083 208.965 28.265V41.685C208.965 43.1883 208.8 44.5267 208.47 45.7C208.14 46.8733 207.517 47.79 206.6 48.45C205.683 49.0733 204.327 49.385 202.53 49.385C201.137 49.385 200.018 49.165 199.175 48.725C198.368 48.285 197.763 47.735 197.36 47.075V55.38H194.005ZM201.485 47.295C202.512 47.295 203.3 47.1483 203.85 46.855C204.4 46.5617 204.803 46.1767 205.06 45.7C205.317 45.1867 205.463 44.6367 205.5 44.05C205.537 43.4267 205.555 42.7667 205.555 42.07V28.815C205.555 28.1183 205.537 27.4767 205.5 26.89C205.463 26.2667 205.317 25.6983 205.06 25.185C204.803 24.6717 204.4 24.2683 203.85 23.975C203.3 23.6817 202.512 23.535 201.485 23.535C200.458 23.535 199.67 23.7183 199.12 24.085C198.57 24.4517 198.167 24.9467 197.91 25.57C197.653 26.1567 197.507 26.7983 197.47 27.495C197.433 28.1917 197.415 28.8517 197.415 29.475V42.455C197.415 43.335 197.488 44.16 197.635 44.93C197.818 45.6633 198.185 46.25 198.735 46.69C199.322 47.0933 200.238 47.295 201.485 47.295ZM214.093 49V21.775H216.953L217.338 24.69C217.741 23.6633 218.401 22.93 219.318 22.49C220.234 22.05 221.151 21.775 222.068 21.665C223.094 21.445 224.084 21.4267 225.038 21.61V24.305C224.891 24.2683 224.634 24.2317 224.268 24.195C223.901 24.1583 223.498 24.14 223.058 24.14C222.654 24.14 222.269 24.2133 221.903 24.36C220.656 24.5067 219.611 24.965 218.768 25.735C217.924 26.4683 217.503 27.4767 217.503 28.76V49H214.093ZM235.044 49.495C233.211 49.495 231.726 49.2933 230.589 48.89C229.452 48.45 228.627 47.6617 228.114 46.525C227.601 45.3883 227.344 43.7383 227.344 41.575V27.99C227.344 25.4233 227.912 23.6633 229.049 22.71C230.222 21.7567 232.147 21.28 234.824 21.28C237.427 21.28 239.297 21.7567 240.434 22.71C241.607 23.6633 242.194 25.4233 242.194 27.99V35.03H230.754V42.73C230.754 44.49 231.029 45.7183 231.579 46.415C232.129 47.075 233.247 47.405 234.934 47.405C236.474 47.405 237.501 47.075 238.014 46.415C238.527 45.755 238.784 44.5267 238.784 42.73V39.21H242.194V41.52C242.194 43.6467 241.937 45.2967 241.424 46.47C240.911 47.6067 240.122 48.395 239.059 48.835C238.032 49.275 236.694 49.495 235.044 49.495ZM230.754 33.27H238.784V27.88C238.784 26.34 238.527 25.2217 238.014 24.525C237.501 23.8283 236.437 23.48 234.824 23.48C233.211 23.48 232.129 23.8283 231.579 24.525C231.029 25.2217 230.754 26.34 230.754 27.88V33.27ZM253.671 49.385C251.691 49.385 250.151 49.1467 249.051 48.67C247.951 48.1567 247.181 47.3683 246.741 46.305C246.301 45.205 246.081 43.7567 246.081 41.96V39.595H249.546V42.73C249.546 44.4533 249.84 45.645 250.426 46.305C251.013 46.965 252.076 47.295 253.616 47.295C254.973 47.295 255.963 46.965 256.586 46.305C257.246 45.645 257.576 44.5267 257.576 42.95V41.41C257.576 40.5667 257.448 39.8517 257.191 39.265C256.935 38.6417 256.44 38.0733 255.706 37.56C255.01 37.0467 254.02 36.5333 252.736 36.02C251.526 35.5433 250.463 35.03 249.546 34.48C248.63 33.93 247.896 33.2333 247.346 32.39C246.833 31.5467 246.576 30.465 246.576 29.145V27.495C246.576 25.5517 247.126 24.0483 248.226 22.985C249.363 21.885 251.27 21.335 253.946 21.335C255.706 21.335 257.1 21.5733 258.126 22.05C259.19 22.5267 259.96 23.2967 260.436 24.36C260.95 25.4233 261.206 26.7983 261.206 28.485V30.795H257.851V28.155C257.851 26.3217 257.54 25.075 256.916 24.415C256.293 23.7183 255.303 23.37 253.946 23.37C252.406 23.37 251.361 23.7367 250.811 24.47C250.298 25.2033 250.041 26.12 250.041 27.22V28.705C250.041 29.7317 250.261 30.575 250.701 31.235C251.178 31.895 251.838 32.445 252.681 32.885C253.525 33.325 254.533 33.7833 255.706 34.26C256.77 34.7 257.705 35.1767 258.511 35.69C259.355 36.1667 260.015 36.8267 260.491 37.67C260.968 38.5133 261.206 39.6683 261.206 41.135V42.4C261.206 43.8667 260.968 45.1317 260.491 46.195C260.051 47.2217 259.281 48.01 258.181 48.56C257.081 49.11 255.578 49.385 253.671 49.385ZM272.739 49.385C270.759 49.385 269.219 49.1467 268.119 48.67C267.019 48.1567 266.249 47.3683 265.809 46.305C265.369 45.205 265.149 43.7567 265.149 41.96V39.595H268.614V42.73C268.614 44.4533 268.907 45.645 269.494 46.305C270.08 46.965 271.144 47.295 272.684 47.295C274.04 47.295 275.03 46.965 275.654 46.305C276.314 45.645 276.644 44.5267 276.644 42.95V41.41C276.644 40.5667 276.515 39.8517 276.259 39.265C276.002 38.6417 275.507 38.0733 274.774 37.56C274.077 37.0467 273.087 36.5333 271.804 36.02C270.594 35.5433 269.53 35.03 268.614 34.48C267.697 33.93 266.964 33.2333 266.414 32.39C265.9 31.5467 265.644 30.465 265.644 29.145V27.495C265.644 25.5517 266.194 24.0483 267.294 22.985C268.43 21.885 270.337 21.335 273.014 21.335C274.774 21.335 276.167 21.5733 277.194 22.05C278.257 22.5267 279.027 23.2967 279.504 24.36C280.017 25.4233 280.274 26.7983 280.274 28.485V30.795H276.919V28.155C276.919 26.3217 276.607 25.075 275.984 24.415C275.36 23.7183 274.37 23.37 273.014 23.37C271.474 23.37 270.429 23.7367 269.879 24.47C269.365 25.2033 269.109 26.12 269.109 27.22V28.705C269.109 29.7317 269.329 30.575 269.769 31.235C270.245 31.895 270.905 32.445 271.749 32.885C272.592 33.325 273.6 33.7833 274.774 34.26C275.837 34.7 276.772 35.1767 277.579 35.69C278.422 36.1667 279.082 36.8267 279.559 37.67C280.035 38.5133 280.274 39.6683 280.274 41.135V42.4C280.274 43.8667 280.035 45.1317 279.559 46.195C279.119 47.2217 278.349 48.01 277.249 48.56C276.149 49.11 274.645 49.385 272.739 49.385Z" fill="black"/>
</svg>
