<?xml version="1.0" encoding="UTF-8"?>
<svg width="61" height="43" viewBox="0 0 61 43" fill="none" xmlns="http://www.w3.org/2000/svg">
<path d="M13.0778 0H22.4191H23.3533V0.93413L22.9796 6.16526H59.037H60.3448L59.7843 7.47304L52.1245 27.6503L51.9376 28.2107H51.1903H20.364H19.4299V27.2766L21.485 1.86826H13.0778V0ZM22.7928 8.03352L21.2982 26.3425H50.6299L57.5424 8.03352H22.7928Z" fill="#048BA8"/>
<path d="M5.04431 9.34131H16.6275V11.2096H5.04431V9.34131Z" fill="#048BA8"/>
<path d="M0 16.4407H25.5952V18.309H0V16.4407Z" fill="#048BA8"/>
<path d="M9.34131 24.1006H20.5509V25.9688H9.34131V24.1006Z" fill="#048BA8"/>
<path d="M46.7065 31.7604C48.7616 31.7604 50.2562 33.255 50.6299 35.497C50.8167 38.2994 49.1353 41.4754 46.5197 42.5964C43.9041 43.7173 40.7281 42.2227 40.5413 39.2335C40.5413 37.1784 41.2886 34.9365 42.5964 33.6287H26.3425C26.7161 34.1892 26.903 34.7497 27.0898 35.497C27.2766 38.2994 25.5952 41.4754 22.9796 42.5964C20.1772 43.7173 17.3748 42.2227 17.0012 39.2335C16.8144 36.4311 18.4958 33.255 21.1114 32.1341C21.6718 31.9473 22.2323 31.7604 22.7928 31.7604H46.7065ZM21.8587 33.8155C19.9904 34.5628 18.6826 36.9916 18.8695 39.0467C19.0563 40.7281 20.5509 41.6622 22.2323 40.9149C24.1006 39.9808 25.4084 37.7389 25.2215 35.6838C25.0347 33.8155 23.5401 33.0682 21.8587 33.8155ZM45.3988 33.8155C43.5305 34.5628 42.2227 36.9916 42.4095 39.0467C42.5964 40.7281 44.091 41.6622 45.7724 40.9149C47.6407 39.9808 48.9485 37.7389 48.7616 35.6838C48.388 33.8155 46.8934 33.0682 45.3988 33.8155Z" fill="#048BA8"/>
</svg>

